<svg xmlns="http://www.w3.org/2000/svg" width="128" height="128" fill="none"><g clip-path="url(#a)"><path fill="#fff" d="M0 0h128v128H0z"/><path fill="#0A0F1D" d="M0 0h128v128H0z"/><path fill="url(#b)" fill-rule="evenodd" d="M165 8.358V157H-74.691c19.99-26.253 45.842-43.618 77.556-52.096 48.068-12.85 40.5-38.656 84.194-65.368C115.68 22.04 141.661 11.646 165 8.358" clip-rule="evenodd"/><g fill="#fff" opacity=".08"><path d="M94.37 35.516h-.414v121.071h.415zM58.118 64.028h-.414v92.559h.414zM21.866 97.911h-.415v58.676h.415z"/><path d="M165 117.714H-29.49v.413H165zM165 57.595H63.815v.413H165z"/></g><path fill="#FFB200" d="M165 8v.835l-.101.015c-22.913 3.333-48.383 13.502-76.407 30.51l-.867.528c-9.562 5.84-17.18 11.924-24.005 18.83-2.487 2.517-4.833 5.1-7.378 8.086l-.915 1.08-1.172 1.408-5.745 6.982-.58.697-.589.703-.59.696-.59.691c-5.176 6.028-9.307 9.997-14.547 13.728-7.315 5.207-16.17 9.236-27.773 12.381l-.492.133c-31.55 8.427-57.283 25.656-77.208 51.697H-75l.169-.222c20.065-26.342 46.024-43.769 77.865-52.273 11.754-3.14 20.664-7.168 27.997-12.389 5.847-4.162 10.304-8.632 16.45-16.02l5.942-7.218 1.192-1.434.222-.264.774-.912c2.557-3 4.916-5.597 7.418-8.13 6.87-6.953 14.543-13.078 24.162-18.954C115.736 21.749 141.671 11.352 165 8"/><path fill="#101218" d="M40.171 86.078a1.6 1.6 0 0 0 1.602-1.598 1.6 1.6 0 0 0-1.602-1.598 1.6 1.6 0 0 0-1.602 1.598 1.6 1.6 0 0 0 1.602 1.597"/><path fill="#FFB200" fill-rule="evenodd" d="M40.171 83.368c-.615 0-1.114.497-1.114 1.112 0 .614.499 1.111 1.114 1.111.615 0 1.115-.497 1.115-1.111 0-.615-.5-1.112-1.115-1.112m-2.09 1.112c0-1.15.935-2.084 2.09-2.084 1.155 0 2.09.933 2.09 2.084 0 1.15-.935 2.084-2.09 2.084a2.087 2.087 0 0 1-2.09-2.084" clip-rule="evenodd"/><path fill="#101218" d="M89.186 39.912a1.6 1.6 0 0 0 1.602-1.598 1.6 1.6 0 0 0-1.602-1.598 1.6 1.6 0 0 0-1.603 1.598 1.6 1.6 0 0 0 1.603 1.598"/><path fill="#FFB200" fill-rule="evenodd" d="M89.186 37.202a1.113 1.113 0 1 0 0 2.224 1.113 1.113 0 1 0 0-2.224m-2.09 1.112c0-1.15.935-2.084 2.09-2.084 1.154 0 2.09.934 2.09 2.084s-.936 2.084-2.09 2.084a2.087 2.087 0 0 1-2.09-2.084" clip-rule="evenodd"/><path fill="#FFB306" d="M26 12c7.732 0 14 6.268 14 14s-6.268 14-14 14c-2.672 0-5.168-.748-7.292-2.047L21.546 33h5.085a7 7 0 1 0 0-14h-2.553a1.51 1.51 0 0 0 0 3.02h2.553a3.98 3.98 0 0 1 0 7.96h-5.49a1.51 1.51 0 0 0-1.462 1.133 1.506 1.506 0 0 0-.033.108l-1.675 6.25A13.983 13.983 0 0 1 12 26c0-7.732 6.268-14 14-14m.631 12.078h-3.596a1.922 1.922 0 1 0 0 3.844h3.596a1.922 1.922 0 0 0 0-3.844"/><g filter="url(#c)"><circle cx="41" cy="87" r="29" fill="#fff"/></g><path fill="#000" d="M57 85.895v11.378h-4.327v-11.53c-.017-2.592-2.145-4.717-4.741-4.74-2.654-.023-4.825 2.215-4.825 4.869v11.401h-4.328v-11.5c-.017-2.604-2.134-4.73-4.73-4.755-2.66-.025-4.835 2.217-4.835 4.877v11.378H25v-11.53c0-5.002 4.052-9.047 9.054-9.047a9.048 9.048 0 0 1 6.917 3.219c.003.002-.002.002 0 0a9.093 9.093 0 0 1 7.21-3.224c4.932.141 8.819 4.27 8.819 9.204"/><g filter="url(#d)"><circle cx="87" cy="87" r="29" fill="#fff"/></g><g clip-path="url(#e)"><path fill="#fff" d="M94.52 102.987a5.046 5.046 0 0 0-2.614-4.26c-4.265-2.355-9.876-2.385-14.296-.059-1.673.88-2.65 2.433-2.704 4.319z"/><path fill="#414242" d="M74.905 102.987c.055-1.886 1.032-3.428 2.705-4.308 4.42-2.326 10.031-2.317 14.296.037a5.062 5.062 0 0 1 2.615 4.271h3.899a13.61 13.61 0 0 0-1.28-6.19 6.952 6.952 0 0 0-.507-1.017c1.64-.552 3.245-.86 4.435-1.103 1.448-.295 2.279-.486 1.793-.883a45.943 45.943 0 0 0-2.401-1.801s5.403-4.465 0-3.113c-.944.235-1.851.6-2.695 1.085a11.397 11.397 0 0 0-3.35 2.952 13.675 13.675 0 0 0-9.702-4.023C77.14 88.894 71 95.013 71 102.586c0 .141.003.401.007.401z"/><path fill="#414242" d="M80.91 102.987c-.016-1.074-.626-1.938-1.377-1.938-.752 0-1.362.864-1.378 1.938zm10.368 0c-.016-1.074-.626-1.938-1.378-1.938-.752 0-1.362.864-1.378 1.938z"/></g></g><defs><clipPath id="a"><path fill="#fff" d="M0 0h128v128H0z"/></clipPath><clipPath id="e"><path fill="#fff" d="M71 71h32v32H71z"/></clipPath><filter id="c" width="82" height="82" x="0" y="46" color-interpolation-filters="sRGB" filterUnits="userSpaceOnUse"><feFlood flood-opacity="0" result="BackgroundImageFix"/><feColorMatrix in="SourceAlpha" result="hardAlpha" values="0 0 0 0 0 0 0 0 0 0 0 0 0 0 0 0 0 0 127 0"/><feOffset/><feGaussianBlur stdDeviation="6"/><feComposite in2="hardAlpha" operator="out"/><feColorMatrix values="0 0 0 0 0 0 0 0 0 0 0 0 0 0 0 0 0 0 0.24 0"/><feBlend in2="BackgroundImageFix" result="effect1_dropShadow_495_2227"/><feBlend in="SourceGraphic" in2="effect1_dropShadow_495_2227" result="shape"/></filter><filter id="d" width="82" height="82" x="46" y="46" color-interpolation-filters="sRGB" filterUnits="userSpaceOnUse"><feFlood flood-opacity="0" result="BackgroundImageFix"/><feColorMatrix in="SourceAlpha" result="hardAlpha" values="0 0 0 0 0 0 0 0 0 0 0 0 0 0 0 0 0 0 127 0"/><feOffset/><feGaussianBlur stdDeviation="6"/><feComposite in2="hardAlpha" operator="out"/><feColorMatrix values="0 0 0 0 0 0 0 0 0 0 0 0 0 0 0 0 0 0 0.24 0"/><feBlend in2="BackgroundImageFix" result="effect1_dropShadow_495_2227"/><feBlend in="SourceGraphic" in2="effect1_dropShadow_495_2227" result="shape"/></filter><linearGradient id="b" x1="165" x2="-21.405" y1="14.725" y2="143.496" gradientUnits="userSpaceOnUse"><stop stop-color="#FFB306" stop-opacity=".4"/><stop offset="1" stop-color="#FFB306" stop-opacity="0"/></linearGradient></defs></svg>